<svg width="16" height="16" viewBox="0 0 16 16" fill="none" xmlns="http://www.w3.org/2000/svg">
<g clip-path="url(#clip0_473_7026)">
<rect width="16" height="16" rx="8" fill="#78EC90"/>
<rect width="16" height="16" rx="8" fill="url(#paint0_linear_473_7026)"/>
<rect width="16" height="16" rx="8" fill="url(#paint1_radial_473_7026)" fill-opacity="0.8"/>
<path d="M8.00984 10.2159C8.01508 9.69975 8.07631 9.00994 8.07631 9.00994H8.00984L6.70777 9.01203L6.70934 11.4768C6.70934 11.6426 6.67794 11.7577 6.61462 11.8769C6.55129 11.9962 6.46389 12.1144 6.35137 12.1766C6.23938 12.2388 6.11482 12.2697 5.97771 12.2697C5.84059 12.2697 5.72232 12.2388 5.62184 12.1766C5.52135 12.1144 5.44338 12.027 5.3879 11.9141C5.33243 11.8011 5.30469 11.6682 5.30469 11.5155V9.00523L4.07745 9L4 11.7409C4 12.0547 4.06018 12.3319 4.18003 12.573C4.29987 12.8141 4.46891 13.0003 4.68715 13.131C4.90538 13.2618 5.15606 13.3277 5.44024 13.3277C5.75005 13.3277 6.01696 13.2534 6.24147 13.1038C6.46599 12.9548 6.62613 12.7508 6.72138 12.4914H6.76795V13.3245H8.01037L8.07683 13.324C8.07683 13.324 8.01037 12.8633 8.01037 12.2383V10.2159H8.00984Z" fill="white"/>
<path d="M10.4877 10.023C10.3715 9.94032 10.2271 9.899 10.0544 9.899C9.94607 9.899 9.84873 9.91365 9.76186 9.94346C9.6755 9.97327 9.60642 10.0151 9.55461 10.0695C9.5028 10.1239 9.4782 10.1866 9.48082 10.2588C9.4782 10.3441 9.51432 10.4178 9.58915 10.4811C9.66399 10.5444 9.78802 10.5925 9.96073 10.6259L10.762 10.7808C11.1801 10.8608 11.4905 10.9941 11.693 11.1808C11.8955 11.3681 11.9981 11.6133 12.0007 11.9177C12.0007 12.1991 11.9191 12.4464 11.7553 12.6603C11.5915 12.8742 11.3628 13.04 11.0702 13.1572C10.7777 13.2743 10.4427 13.3334 10.0659 13.3334C9.68911 13.3334 9.33376 13.278 9.04592 13.1671C8.75809 13.0562 8.53253 12.8983 8.3682 12.6933C8.20439 12.4883 8.10705 12.1086 8.07617 11.8272L9.38034 12.0254C9.40598 12.175 9.47978 12.2278 9.60119 12.3063C9.72261 12.3853 9.88013 12.4229 10.0732 12.4203C10.1947 12.4229 10.3004 12.4098 10.3904 12.3816C10.4804 12.3534 10.5511 12.3115 10.6013 12.2556C10.6515 12.2001 10.6767 12.1353 10.6767 12.0605C10.674 11.9648 10.6301 11.8869 10.5453 11.8262C10.46 11.7655 10.3271 11.7158 10.1465 11.6771L9.42639 11.5417C9.01609 11.4669 8.70575 11.3267 8.49537 11.1217C8.28499 10.9167 8.18084 10.6558 8.18346 10.3383C8.18346 10.0627 8.25777 9.82317 8.40588 9.62078C8.55451 9.41838 8.76803 9.26411 9.04645 9.15846C9.32487 9.05282 9.653 9 10.0298 9C10.4066 9 10.7253 9.05491 11.0011 9.16422C11.2769 9.27404 11.492 9.43041 11.6459 9.63438C11.7992 9.83834 11.884 10.2212 11.8992 10.4968L10.6876 10.2902C10.6416 10.1584 10.6023 10.1035 10.4862 10.0209L10.4877 10.023Z" fill="white"/>
<path d="M4.0751 5.656C3.97512 5.58661 3.85083 5.55191 3.70223 5.55191C3.60901 5.55191 3.52525 5.5642 3.4505 5.58924C3.37619 5.61428 3.31675 5.64941 3.27217 5.69509C3.22758 5.74077 3.20642 5.79348 3.20867 5.85409C3.20642 5.92569 3.23749 5.98762 3.30189 6.04077C3.36628 6.09391 3.47301 6.13432 3.62162 6.16243L4.31107 6.29244C4.67087 6.35964 4.93792 6.47165 5.11219 6.62845C5.28647 6.78569 5.37473 6.99169 5.37698 7.24732C5.37698 7.48363 5.30673 7.69138 5.16578 7.87103C5.02483 8.05067 4.82804 8.1899 4.57631 8.28829C4.32458 8.38668 4.03637 8.43631 3.71213 8.43631C3.3879 8.43631 3.08213 8.38975 2.83445 8.29664C2.58677 8.20352 2.39268 8.07087 2.25128 7.8987C2.11033 7.72652 2.02657 7.40764 2 7.17134L3.12221 7.3378C3.14427 7.46342 3.20777 7.50778 3.31225 7.57367C3.41672 7.63999 3.55227 7.67162 3.71844 7.66942C3.82291 7.67162 3.91388 7.66064 3.99134 7.63692C4.06879 7.6132 4.12958 7.57806 4.17282 7.53106C4.21605 7.48451 4.23766 7.43004 4.23766 7.36723C4.23541 7.28685 4.19758 7.22141 4.12463 7.17046C4.05123 7.11951 3.93685 7.07778 3.78148 7.04528L3.16184 6.93152C2.80878 6.86871 2.54174 6.751 2.36071 6.57882C2.17968 6.40664 2.09006 6.18747 2.09232 5.92086C2.09232 5.68938 2.15626 5.48822 2.2837 5.31824C2.4116 5.14826 2.59533 5.01868 2.8349 4.92996C3.07447 4.84124 3.35683 4.79688 3.68106 4.79688C4.0053 4.79688 4.27954 4.84299 4.51686 4.93479C4.75419 5.02703 4.93927 5.15836 5.07166 5.32966C5.20361 5.50096 5.27656 5.82247 5.28962 6.05394L4.24712 5.88045C4.20749 5.76976 4.17372 5.72364 4.07374 5.65425L4.0751 5.656Z" fill="white"/>
<path d="M6.97332 4.84463H6.72384V4H5.60164V4.84463V5.73758V7.39435C5.59938 7.62582 5.64847 7.8182 5.74799 7.97105C5.84751 8.1239 5.99297 8.23722 6.18255 8.31233C6.37259 8.387 6.60181 8.42433 6.8702 8.42433C7.0787 8.42433 7.26423 8.41028 7.42635 8.38217V7.55466V7.54939L7.33403 7.55554C7.30701 7.55686 7.2818 7.56081 7.25838 7.56696C7.221 7.5696 7.18363 7.57136 7.14625 7.57223C7.09491 7.57355 7.05528 7.57267 7.02646 7.57048C6.95982 7.57048 6.90442 7.55027 6.85984 7.53095C6.81526 7.51162 6.78149 7.48044 6.75852 7.43827C6.7351 7.3961 6.72339 7.33813 6.72339 7.26434V5.73758H7.58712V4.81652C7.58712 4.81652 7.28135 4.83673 6.97287 4.84463H6.97332Z" fill="white"/>
<path d="M14.0004 5.59308C14.0004 5.59308 13.8405 5.5799 13.5811 5.5575L13.2699 5.49381V5.0436C13.2699 4.60438 13.3276 4 13.3276 4H12.1874L12.1725 5.26893L11.3552 5.10114C11.3574 5.09982 11.3592 5.09939 11.3592 5.09939L10.2014 4.85693C9.86413 4.80993 9.58809 4.79632 9.36743 4.80027C9.35482 4.80027 9.34266 4.79939 9.33005 4.79939C9.00356 4.79939 8.72346 4.84903 8.48884 4.94873C8.25467 5.04843 8.07319 5.18416 7.9444 5.35633C7.81561 5.52851 7.74221 5.72177 7.72464 5.93611H8.77705C8.79912 5.82147 8.85586 5.73231 8.94682 5.66994C9.03779 5.60713 9.15758 5.57551 9.30663 5.57551C9.40886 5.57551 9.49757 5.59 9.57322 5.61943C9.64843 5.64886 9.70517 5.69322 9.743 5.75252C9.78082 5.81225 9.79974 5.88297 9.79974 5.96554L9.80199 6.24621C9.7484 6.24796 9.69481 6.24972 9.63987 6.25104C9.52684 6.25763 9.40796 6.26334 9.28367 6.26905C9.15938 6.27432 9.04139 6.28047 8.93061 6.28705C8.53072 6.31077 8.20784 6.4096 7.96151 6.58265C7.71519 6.75571 7.5918 7.0254 7.5918 7.39171C7.5918 7.61923 7.64268 7.81117 7.74491 7.96842C7.84713 8.12566 7.98763 8.24249 8.16641 8.31936C8.34519 8.39622 8.55099 8.43356 8.78426 8.43136C9.03734 8.43356 9.25169 8.38744 9.42687 8.29344C9.60205 8.19901 9.73984 8.06241 9.83982 7.88277H9.86639V8.4318H10.9255V6.08589L10.9301 6.01869V5.98882L12.1612 6.2383L12.1477 7.39391C12.1455 7.62538 12.1946 7.81776 12.2941 7.97061C12.3936 8.12346 12.5364 8.22668 12.7286 8.31189C12.8489 8.36504 12.9088 8.37646 13.1038 8.4072C13.2366 8.42785 13.4415 8.41511 13.5991 8.39271H13.6018C13.6126 8.39095 13.623 8.38963 13.6334 8.38788L13.7977 8.3624L13.8441 7.54851L13.7248 7.55466C13.4672 7.56389 13.3541 7.49669 13.3541 7.49669L13.3555 7.49932C13.3352 7.48263 13.3181 7.46243 13.3046 7.43827C13.2812 7.3961 13.2695 7.33812 13.2695 7.26433V6.46362L13.949 6.60154L13.9896 5.70684L13.9941 5.64754L13.9999 5.59308H14.0004ZM9.71958 7.42377C9.65969 7.51469 9.57683 7.58497 9.47145 7.63504C9.36608 7.68467 9.25079 7.70883 9.1265 7.70664C9.03329 7.70883 8.95178 7.69522 8.88153 7.66579C8.81173 7.63636 8.75679 7.59507 8.71671 7.54061C8.67663 7.48658 8.65681 7.42026 8.65681 7.34252C8.65681 7.23007 8.69869 7.13696 8.78155 7.06317C8.86486 6.98938 8.9788 6.94633 9.1229 6.93316C9.267 6.91778 9.43948 6.90724 9.63897 6.90065C9.68986 6.89846 9.72994 6.89626 9.75876 6.89407C9.77362 6.89275 9.78983 6.89187 9.80694 6.89055L9.80874 7.11807C9.80874 7.23051 9.77857 7.33241 9.71868 7.42333L9.71958 7.42377Z" fill="white"/>
</g>
<defs>
<linearGradient id="paint0_linear_473_7026" x1="14" y1="15" x2="11.4286" y2="8.57143" gradientUnits="userSpaceOnUse">
<stop stop-color="#00FFFF"/>
<stop offset="1" stop-color="#01DC72" stop-opacity="0"/>
</linearGradient>
<radialGradient id="paint1_radial_473_7026" cx="0" cy="0" r="1" gradientUnits="userSpaceOnUse" gradientTransform="translate(8 8.57143) rotate(90) scale(7.42857)">
<stop offset="0.479167" stop-color="#00E446"/>
<stop offset="1" stop-color="#00FF2D" stop-opacity="0"/>
</radialGradient>
<clipPath id="clip0_473_7026">
<rect width="16" height="16" fill="white"/>
</clipPath>
</defs>
</svg>
